<?xml version="1.0" encoding="utf-8"?>
<!-- Generator: Adobe Illustrator 22.1.0, SVG Export Plug-In . SVG Version: 6.00 Build 0)  -->
<svg version="1.1" id="Layer_1" xmlns="http://www.w3.org/2000/svg" xmlns:xlink="http://www.w3.org/1999/xlink" x="0px" y="0px"
	 viewBox="0 0 1200 400" style="enable-background:new 0 0 1200 400;" xml:space="preserve">
<style type="text/css">
	.st0{fill:#0D1518;}
	.st1{opacity:0.12;clip-path:url(#SVGID_2_);}
	.st2{fill:none;stroke:#C9C9C9;stroke-linecap:round;stroke-miterlimit:10;stroke-dasharray:11.9852,11.9852;}
	.st3{fill:none;stroke:#C9C9C9;stroke-linecap:round;stroke-miterlimit:10;stroke-dasharray:12.0291,12.0291;}
	.st4{clip-path:url(#SVGID_2_);fill:none;stroke:#8E1B24;stroke-miterlimit:10;}
	.st5{clip-path:url(#SVGID_2_);fill:#73C161;}
	.st6{clip-path:url(#SVGID_2_);}
	.st7{fill:#E01F26;}
	.st8{font-family:'Play-Regular';}
	.st9{font-size:19.3562px;}
	.st10{font-family:'Play-Bold';}
	.st11{fill:#720F1C;}
	.st12{fill:#73C161;}
</style>
<rect x="-0.2" class="st0" width="1200" height="400"/>
<g>
	<defs>
		<rect id="SVGID_1_" width="1200" height="400"/>
	</defs>
	<clipPath id="SVGID_2_">
		<use xlink:href="#SVGID_1_"  style="overflow:visible;"/>
	</clipPath>
	<g class="st1">
		<circle class="st2" cx="599.2" cy="65.2" r="251.8"/>
	</g>
	<g class="st1">
		<circle class="st3" cx="243.6" cy="377.4" r="283.3"/>
	</g>
	<g class="st1">
		<circle class="st2" cx="947.7" cy="192.6" r="251.8"/>
	</g>
	<circle class="st5" cx="851.5" cy="57.1" r="3.9"/>
	<g class="st6">
		
			<image style="overflow:visible;" width="333" height="333" xlink:href="648558FF7BFB5CFF.png"  transform="matrix(0.24 0 0 0.24 811.56 17.12)">
		</image>
	</g>
	<circle class="st5" cx="125.4" cy="120" r="3.3"/>
	<g class="st6">
		
			<image style="overflow:visible;" width="329" height="329" xlink:href="648558FF7BFB5CFD.png"  transform="matrix(0.24 0 0 0.24 85.84 80.56)">
		</image>
	</g>
	<circle class="st5" cx="725.7" cy="313" r="1.5"/>
	<g class="st6">
		
			<image style="overflow:visible;" width="314" height="313" xlink:href="648558FF7BFB5D03.png"  transform="matrix(0.24 0 0 0.24 688 275.44)">
		</image>
	</g>
</g>
<g>
	<text transform="matrix(1 0 0 1 658.9456 190.7717)"><tspan x="0" y="0" class="st7 st8 st9">cyber</tspan><tspan x="0" y="23.2" class="st7 st10 st9">search</tspan></text>
	<path class="st11" d="M493.8,223.8c-8.1-9.1-19.8-30.9-3.9-58c2.5-4.2,5.6-8.1,9.2-11.7l-4.4-10.6l-3.8-8.7
		c-37.8,34.5-23.8,66.5-13,86.3c11.2,20.6,34.5,16.1,34.5,16.1S499.1,229.8,493.8,223.8z"/>
	<path class="st11" d="M498.5,116.3l10.5,22.9c0,0,51.8-13.7,84.4,5c31.1,17.8,31.9,46,29,59.7c-1.9,9-10.8,23.9-10.8,23.9
		s24.2-13.1,23.7-39.8s-3.7-64.2-67.4-75.2C532.6,106.6,498.5,116.3,498.5,116.3z"/>
	<circle class="st12" cx="555" cy="191.8" r="22.5"/>
	<g>
		
			<image style="overflow:visible;" width="488" height="488" xlink:href="648558FF7BFB5D05.png"  transform="matrix(0.24 0 0 0.24 496.48 133.28)">
		</image>
	</g>
	<path class="st7" d="M645.5,188.1c-3.4-34.2-28.5-53.2-28.5-53.2c8.3,15.3,13.9,51.4,4.3,73.5c-17.8,41.2-49,48.5-49,48.5l0.8,3.1
		l12.2,29.2c8.7-4.1,29.4-15.5,44.5-36.7C635.4,244.8,649.2,224.9,645.5,188.1z"/>
	<path class="st7" d="M550.1,243.1c-9.1,0.9-29.6,0.4-53.4-16.4c-19.8-14-28.3-42.6-28.7-57.8c0,0-10.8,25.4,1.4,52.8
		c13.2,29.6,32.3,38.7,40,42.3c23.9,11,47.9,8.9,52.8,8.3L550.1,243.1z"/>
	<circle class="st7" cx="713" cy="187.3" r="1.8"/>
</g>
</svg>
